<svg height="512" viewBox="0 0 24 24" width="512" xmlns="http://www.w3.org/2000/svg"><g id="entertainment/audio-video/screenshare" fill="none" fill-rule="evenodd"><path id="Fill-50" d="m20.5 18.0007888h-3c-.276 0-.5-.224-.5-.5s.224-.5.5-.5h2.5v-9.99999996h-17v9.99999996h2.5c.276 0 .5.224.5.5s-.224.5-.5.5h-3c-.276 0-.5-.224-.5-.5v-10.99999996c0-.276.224-.5.5-.5h18c.276 0 .5.224.5.5v10.99999996c0 .276-.224.5-.5.5zm-13.793 2h9.586l-4.793-4.793zm10.793 1h-12c-.202 0-.385-.122-.462-.309-.078-.186-.035-.402.108-.545l6-6c.196-.195.512-.195.708 0l6 6c.143.143.186.359.108.545-.077.187-.26.309-.462.309z" fill="rgb(0,0,0)"/></g></svg>