<svg height="512" viewBox="0 0 24 24" width="512" xmlns="http://www.w3.org/2000/svg"><g id="entertainment/audio-video/bell-mute" fill="none" fill-rule="evenodd"><path id="Fill-12" d="m3.6235 16.9997888h2.966l8.83-11.35199996c-.581-.59-1.3-1.054-2.117-1.338-.23-.08-.368-.312-.33-.552.013-.084.028-.169.028-.257 0-.827-.673-1.5-1.5-1.5s-1.5.673-1.5 1.5c0 .086.014.17.027.253.041.241-.098.475-.329.556-2.212.768-3.699 2.854-3.699 5.191v.75799996c0 2.484-.836 4.838-2.376 6.741zm4.233 0 11.522.001c-1.541-1.904-2.378-4.258-2.378-6.742v-.75799996c0-1.115-.339-2.173-.933-3.058zm2.23 1.001c.206.582.762 1 1.414 1s1.208-.418 1.414-1.001zm-5.587 3c-.107 0-.215-.034-.307-.105-.217-.169-.257-.484-.087-.702l1.706-2.193h-3.312c-.202 0-.384-.122-.461-.309-.078-.186-.035-.402.108-.545 1.84-1.839 2.853-4.286 2.853-6.888v-.75799996c0-2.63 1.592-4.991 4.001-5.995v-.005c0-1.378 1.121-2.5 2.5-2.5s2.5 1.122 2.5 2.5v.005c.771.322 1.459.783 2.037 1.347l2.068-2.659c.169-.219.485-.258.702-.088.218.17.257.484.087.702l-2.186 2.811c.819 1.097 1.292 2.449 1.292 3.882v.75799996c0 2.602 1.013 5.048 2.852 6.887.143.143.186.359.109.545-.077.187-.26.309-.462.309h-6.549c-.232 1.141-1.242 2.001-2.45 2.001-1.207 0-2.218-.86-2.45-2h-1.972l-2.184 2.807c-.099.127-.246.193-.395.193z" fill="rgb(0,0,0)"/></g></svg>