<svg height="512" viewBox="0 0 24 24" width="512" xmlns="http://www.w3.org/2000/svg"><g id="entertainment/audio-video/bell" fill="none" fill-rule="evenodd"><path id="Fill-10" d="m3.6235 16.9997888 15.754.001c-1.541-1.904-2.378-4.258-2.378-6.742v-.75799996c0-2.336-1.485-4.423-3.697-5.191-.23-.08-.369-.314-.329-.554.013-.083.026-.168.026-.255 0-.827-.672-1.5-1.5-1.5-.827 0-1.5.673-1.5 1.5 0 .087.014.172.028.255.04.24-.099.474-.329.554-2.212.768-3.699 2.854-3.699 5.191v.75799996c0 2.484-.836 4.838-2.376 6.741zm6.462 1.001c.206.582.763 1 1.414 1 .652 0 1.209-.418 1.415-1.001zm1.414 2c-1.207 0-2.217-.86-2.449-2h-6.551c-.202 0-.384-.122-.461-.309-.078-.186-.035-.402.108-.545 1.84-1.839 2.853-4.286 2.853-6.888v-.75799996c0-2.63 1.592-4.991 4-5.995v-.005c0-1.378 1.122-2.5 2.5-2.5 1.379 0 2.5 1.122 2.5 2.5v.005c2.409 1.004 4 3.365 4 5.995v.75799996c0 2.602 1.014 5.048 2.853 6.887.143.143.186.359.108.545-.077.187-.259.309-.462.309h-6.549c-.232 1.141-1.242 2.001-2.45 2.001z" fill="rgb(0,0,0)"/></g></svg>