<svg height="512" viewBox="0 0 24 24" width="512" xmlns="http://www.w3.org/2000/svg"><g id="entertainment/multimedia/apature" fill="none" fill-rule="evenodd"><path id="Fill-7" d="m7.9263 3.78738884 6.866 5.268.668-5.077c-2.343-1.231-5.144-1.295-7.534-.191zm-.961.522c-2.227 1.367-3.743 3.928-3.927 6.42699996l7.989-3.30899996zm9.429.24-1.13 8.57899996 4.726-1.957c-.064-2.51099996-1.421-5.12399996-3.596-6.62199996zm-8.035 8.25199996 2.697 2.069 3.141-1.3.444-3.37-2.698-2.06999996-3.141 1.301zm-5.349-.971c.064 2.513 1.421 5.121 3.596 6.623l1.13-8.57999996zm8.962 3.744 4.065 3.118c2.228-1.375 3.74-3.925 3.925-6.427l-5.107 2.115c-.006.002-.012.005-.017.007zm-4.433 3.452c2.288 1.207 5.197 1.278 7.538.19l-4.383-3.363c-.012-.008-.024-.018-.036-.027l-2.45-1.88zm-2.755-.808c-1.795-1.794-2.783-4.18-2.783-6.7180001 0-5.23599986 4.263-9.50099986 9.5-9.50000004 5.239 0 9.501 4.26300018 9.501 9.50100014 0 5.237-4.263 9.501-9.5 9.5000002-2.538 0-4.924-.9880002-6.718-2.7830002z" fill="rgb(0,0,0)"/></g></svg>