<svg height="512" viewBox="0 0 24 24" width="512" xmlns="http://www.w3.org/2000/svg"><g id="entertainment/audio-video/eject" fill="none" fill-rule="evenodd"><path id="Fill-37" d="m3.7075 13.0007888h15.586l-7.793-7.79299996zm16.793 1h-18c-.202 0-.385-.122-.462-.309-.077-.186-.034-.402.108-.545l9-8.99999996c.196-.195.512-.195.707 0l9 8.99999996c.143.143.186.359.109.545-.077.187-.26.309-.462.309zm0 4h-18c-.276 0-.5-.224-.5-.5s.224-.5.5-.5h18c.276 0 .5.224.5.5s-.224.5-.5.5z" fill="rgb(0,0,0)"/></g></svg>