<svg height="512" viewBox="0 0 24 24" width="512" xmlns="http://www.w3.org/2000/svg"><g id="entertainment/audio-video/fast-forward" fill="none" fill-rule="evenodd"><path id="Fill-35" d="m4 3.68338884v15.58599996l7.793-7.793zm9 15.58599996 7.793-7.793-7.793-7.79299996zm-.5 1.707c-.064 0-.129-.013-.191-.038-.187-.077-.309-.26-.309-.462v-7.793l-8.146 8.146c-.144.144-.359.185-.545.109-.187-.077-.309-.26-.309-.462v-17.99999996c0-.202.122-.385.309-.462.187-.076.401-.035.545.108l8.146 8.14699996v-7.79299996c0-.202.122-.385.309-.462.187-.076.401-.035.545.108l9 8.99999996c.195.196.195.512 0 .707l-9 9c-.096.096-.224.147-.354.147z" fill="rgb(0,0,0)"/></g></svg>