<svg height="512" viewBox="0 0 24 24" width="512" xmlns="http://www.w3.org/2000/svg"><g id="entertainment/audio-video/fullscreen-exit" fill="none" fill-rule="evenodd"><path id="Fill-33" d="m7.5005 8.00078884h-4c-.276 0-.5-.224-.5-.5s.224-.5.5-.5h3.5v-3.5c0-.276.224-.5.5-.5s.5.224.5.5v4c0 .276-.224.5-.5.5m12 0h-4c-.276 0-.5-.224-.5-.5v-4c0-.276.224-.5.5-.5s.5.224.5.5v3.5h3.5c.276 0 .5.224.5.5s-.224.5-.5.5m-12 11.99999996c-.276 0-.5-.224-.5-.5v-3.5h-3.5c-.276 0-.5-.224-.5-.5s.224-.5.5-.5h4c.276 0 .5.224.5.5v4c0 .276-.224.5-.5.5m8 0c-.276 0-.5-.224-.5-.5v-4c0-.276.224-.5.5-.5h4c.276 0 .5.224.5.5s-.224.5-.5.5h-3.5v3.5c0 .276-.224.5-.5.5" fill="rgb(0,0,0)"/></g></svg>