<svg height="512" viewBox="0 0 24 24" width="512" xmlns="http://www.w3.org/2000/svg"><g id="entertainment/audio-video/hang-up" fill="none" fill-rule="evenodd"><path id="Fill-9" d="m16 13.6403888 3.722 1.241.413-.965c.494-1.153.052-2.503-1.031-3.139-2.004-1.17899996-4.562-1.77699996-7.604-1.77699996s-5.6.598-7.604 1.77699996c-1.082.636-1.525 1.986-1.031 3.14l.413.964 3.722-1.241v-1.14c0-.167.083-.323.223-.416 1.079-.719 2.518-1.084 4.277-1.084s3.198.365 4.277 1.084c.14.093.223.249.223.416zm-13 2.36c-.195 0-.379-.114-.459-.303l-.595-1.387c-.692-1.615-.071-3.504 1.443-4.39499996 2.16-1.271 4.889-1.915 8.111-1.915 3.223 0 5.952.644 8.111 1.915 1.515.89099996 2.136 2.77999996 1.443 4.39499996l-.595 1.388c-.102.238-.371.359-.617.276l-4.5-1.5c-.204-.067-.342-.258-.342-.474v-1.222c-.889-.516-2.065-.778-3.5-.778s-2.611.262-3.5.778v1.222c0 .216-.138.407-.342.474l-4.5 1.5c-.052.018-.106.026-.158.026z" fill="rgb(0,0,0)"/></g></svg>