<svg height="512" viewBox="0 0 24 24" width="512" xmlns="http://www.w3.org/2000/svg"><g id="entertainment/multimedia/photo" fill="none" fill-rule="evenodd"><path id="Fill-5" d="m9.0005 7.00078884c-.552 0-1 .449-1 1s.448 1 1 1 1-.449 1-1-.448-1-1-1zm0 2.99999996c-1.103 0-2-.89699996-2-1.99999996s.897-2 2-2 2 .897 2 2-.897 1.99999996-2 1.99999996zm-2.5 2c.128 0 .256.049.354.146l2.613 2.613 4.649-5.57899996c.19-.228.578-.228.768 0l4.116 4.93899996v-10.11899996h-15v10.29299996l2.146-2.147c.098-.097.226-.146.354-.146zm-2.5 7h15v-3.319l-4.5-5.4-4.616 5.539c-.09.108-.221.173-.362.18-.131.008-.276-.046-.376-.146l-2.646-2.647-2.5 2.5zm15.5 1h-16c-.276 0-.5-.224-.5-.5v-15.99999996c0-.276.224-.5.5-.5h16c.276 0 .5.224.5.5v15.99999996c0 .276-.224.5-.5.5z" fill="rgb(0,0,0)"/></g></svg>