<svg height="512" viewBox="0 0 24 24" width="512" xmlns="http://www.w3.org/2000/svg"><g id="entertainment/multimedia/picture" fill="none" fill-rule="evenodd"><path id="Fill-6" d="m11.5005 8.00078884c-1.93 0-3.5 1.57-3.5 3.49999996 0 1.93 1.57 3.5 3.5 3.5s3.5-1.57 3.5-3.5c0-1.92999996-1.57-3.49999996-3.5-3.49999996zm0 7.99999996c-2.481 0-4.5-2.019-4.5-4.5 0-2.48099996 2.019-4.49999996 4.5-4.49999996s4.5 2.019 4.5 4.49999996c0 2.481-2.019 4.5-4.5 4.5zm-8-8.99999996c-.275 0-.5.224-.5.5v9.99999996c0 .276.225.5.5.5h16c.275 0 .5-.224.5-.5v-9.99999996c0-.276-.225-.5-.5-.5h-2.465c-.503 0-.969-.25-1.248-.668l-1.406-2.109c-.094-.14-.249-.223-.416-.223h-4.93c-.168 0-.323.083-.416.223l-1.406 2.109c-.28.418-.747.668-1.248.668zm16 11.99999996h-16c-.827 0-1.5-.673-1.5-1.5v-9.99999996c0-.827.673-1.5 1.5-1.5h2.465c.167 0 .323-.083.417-.224l1.405-2.108c.278-.418.745-.668 1.248-.668h4.93c.502 0 .968.25 1.248.668l1.406 2.109c.093.14.248.223.416.223h2.465c.827 0 1.5.673 1.5 1.5v9.99999996c0 .827-.673 1.5-1.5 1.5z" fill="rgb(0,0,0)"/></g></svg>