<svg height="512" viewBox="0 0 24 24" width="512" xmlns="http://www.w3.org/2000/svg"><g id="entertainment/audio-video/loop-clockwise" fill="none" fill-rule="evenodd"><path id="Fill-40" d="m19.5005 14.0007888c-.135-.001-.26-.053-.354-.147l-3-2.999c-.195-.196-.195-.512 0-.708.196-.19499996.512-.19499996.708 0l2.146 2.147v-6.79299996c0-.827-.673-1.5-1.5-1.5h-12c-.828 0-1.5.673-1.5 1.5 0 .276-.224.5-.5.5-.277 0-.5-.224-.5-.5 0-1.379 1.121-2.5 2.5-2.5h12c1.379 0 2.5 1.121 2.5 2.5v6.79299996l2.146-2.147c.196-.19499996.512-.19499996.708 0 .195.196.195.512 0 .708l-3 2.999c-.094.094-.219.146-.354.147m-2 6h-12c-1.379 0-2.5-1.121-2.5-2.5v-6.793l-2.147 2.147c-.195.195-.512.195-.707 0-.195-.196-.195-.512 0-.708l2.999-2.99899996c.187-.194.521-.196.708-.001l3 2.99999996c.195.196.195.512 0 .708-.195.195-.512.195-.707 0l-2.146-2.147v6.793c0 .827.672 1.5 1.5 1.5h12c.827 0 1.5-.673 1.5-1.5 0-.276.224-.5.5-.5s.5.224.5.5c0 1.379-1.121 2.5-2.5 2.5" fill="rgb(0,0,0)"/></g></svg>