<svg height="512" viewBox="0 0 24 24" width="512" xmlns="http://www.w3.org/2000/svg"><g id="entertainment/audio-video/microphone" fill="none" fill-rule="evenodd"><path id="Fill-18" d="m11.5005 3.00078884c-1.379 0-2.5 1.122-2.5 2.5v6.99999996c0 1.378 1.121 2.5 2.5 2.5s2.5-1.122 2.5-2.5v-6.99999996c0-1.378-1.121-2.5-2.5-2.5m0 12.99999996c-1.93 0-3.5-1.57-3.5-3.5v-6.99999996c0-1.93 1.57-3.5 3.5-3.5s3.5 1.57 3.5 3.5v6.99999996c0 1.93-1.57 3.5-3.5 3.5m4 5h-8c-.276 0-.5-.224-.5-.5s.224-.5.5-.5h3.5v-2.022c-2.8-.253-5-2.614-5-5.478v-2.99999996c0-.276.224-.5.5-.5s.5.224.5.5v2.99999996c0 2.481 2.019 4.5 4.5 4.5s4.5-2.019 4.5-4.5v-2.99999996c0-.276.224-.5.5-.5s.5.224.5.5v2.99999996c0 2.864-2.2 5.225-5 5.478v2.022h3.5c.276 0 .5.224.5.5s-.224.5-.5.5" fill="rgb(0,0,0)"/></g></svg>