<svg height="512" viewBox="0 0 24 24" width="512" xmlns="http://www.w3.org/2000/svg"><g id="entertainment/audio-video/microphone-mute" fill="none" fill-rule="evenodd"><path id="Fill-19" d="m11.5 3.00078884c-1.378 0-2.5 1.121-2.5 2.5v6.99999996c0 .388.089.755.247 1.083l4.753-6.11099996v-1.972c0-1.379-1.122-2.5-2.5-2.5zm-1.623 11.39999996c.437.374 1.004.6 1.623.6 1.378 0 2.5-1.121 2.5-2.5v-3.39899996zm-5.377 6.6c-.107 0-.216-.034-.307-.105-.218-.169-.257-.484-.088-.702l3.21-4.128c-.819-.961-1.315-2.206-1.315-3.565v-2.99999996c0-.276.224-.5.5-.5s.5.224.5.5v2.99999996c0 1.037.353 1.994.945 2.756l.639-.821c-.369-.555-.584-1.22-.584-1.935v-6.99999996c0-1.93 1.57-3.5 3.5-3.5s3.5 1.57 3.5 3.5v.686l3.105-3.993c.17-.217.484-.257.702-.088s.257.484.088.702l-3.895 5.007v4.68599996c0 1.93-1.57 3.5-3.5 3.5-.85 0-1.63-.305-2.237-.81l-.614.789c.777.638 1.77 1.021 2.851 1.021 2.481 0 4.5-2.019 4.5-4.5v-2.99999996c0-.276.224-.5.5-.5s.5.224.5.5v2.99999996c0 2.864-2.201 5.225-5 5.478v2.022h3.5c.276 0 .5.224.5.5s-.224.5-.5.5h-8c-.276 0-.5-.224-.5-.5s.224-.5.5-.5h3.5v-2.022c-1.118-.102-2.14-.539-2.964-1.209l-3.141 4.038c-.099.127-.247.193-.395.193z" fill="rgb(0,0,0)"/></g></svg>