<svg height="512" viewBox="0 0 24 24" width="512" xmlns="http://www.w3.org/2000/svg"><g id="entertainment/multimedia/music-note" fill="none" fill-rule="evenodd"><path id="Fill-11" d="m8 4.87288884v1.956l9-2.7v-1.956zm6.5 9.12799996c-1.355 0-2.5.687-2.5 1.5s1.145 1.5 2.5 1.5 2.5-.687 2.5-1.5-1.145-1.5-2.5-1.5zm-10 3c-1.355 0-2.5.687-2.5 1.5s1.145 1.5 2.5 1.5 2.5-.687 2.5-1.5-1.145-1.5-2.5-1.5zm0 4c-1.962 0-3.5-1.098-3.5-2.5s1.538-2.5 3.5-2.5c.989 0 1.869.279 2.5.734v-12.23399996c0-.221.145-.416.356-.479l10-3c.15-.045.315-.017.442.078.127.094.202.243.202.401v13.99999996c0 1.402-1.538 2.5-3.5 2.5s-3.5-1.098-3.5-2.5 1.538-2.5 3.5-2.5c.989 0 1.869.279 2.5.734v-8.56199996l-9 2.7v10.62799996c0 1.402-1.538 2.5-3.5 2.5z" fill="rgb(0,0,0)"/></g></svg>