<svg height="512" viewBox="0 0 24 24" width="512" xmlns="http://www.w3.org/2000/svg"><g id="entertainment/multimedia/music-clef" fill="none" fill-rule="evenodd"><path id="Fill-16" d="m11.397 2.13798884c-.87.572-1.396 1.538-1.396 2.599 0 .926.116 1.847.345 2.745 1.04-.884 1.655-2.198 1.655-3.568 0-.651-.212-1.269-.604-1.776zm.349 9.87399996 1.896 6.07c.835-.709 1.367-1.765 1.37-2.943.043-.85-.239-1.682-.849-2.284-.632-.644-1.527-.928-2.417-.843zm-1.942-2.85899996c-1.76 1.41599996-2.804 3.58299996-2.804 5.84799996 0 2.205 1.795 4.001 4.001 4.002.621.017 1.235-.109 1.769-.361l-1.994-6.379c-1.045.469-1.775 1.52-1.776 2.737 0 .276-.224.5-.5.5-.276 0-.5-.224-.5-.501.001-1.665 1.025-3.095 2.476-3.696zm2.697 13.84799996c-.276 0-.5-.224-.5-.5 0-.277.223-.5.5-.5.312 0 .596-.144.782-.396.183-.251.236-.566.142-.863l-.355-1.139c-.63.277-1.345.416-2.069.4-2.758-.001-5.00100057-2.245-5.00100057-5.002-.00099943-2.698 1.31000057-5.27399996 3.48900057-6.86599996-.324-1.105-.488-2.247-.488-3.398 0-1.57.872-2.981 2.276-3.683.192-.098.425-.06.577.093.739.74 1.147 1.722 1.147 2.767 0 1.808-.883 3.536-2.349 4.599l.79 2.52699996c1.247-.18 2.539.201 3.429 1.109.797.791 1.189 1.874 1.141 2.991-.004 1.631-.814 3.077-2.052 3.96l.42 1.343c.19.604.083 1.244-.292 1.755-.375.51-.953.803-1.587.803z" fill="rgb(0,0,0)"/></g></svg>