<svg height="512" viewBox="0 0 24 24" width="512" xmlns="http://www.w3.org/2000/svg"><g id="entertainment/multimedia/music-note-alt-2" fill="none" fill-rule="evenodd"><path id="Fill-14" d="m7.5 17.0007888c-1.355 0-2.5.687-2.5 1.5s1.145 1.5 2.5 1.5 2.5-.687 2.5-1.5-1.145-1.5-2.5-1.5m0 4c-1.962 0-3.5-1.098-3.5-2.5s1.538-2.5 3.5-2.5c.989 0 1.869.279 2.5.734v-12.23399996c0-.189.107-.362.276-.447l6-3c.247-.122.547-.024.671.223s.024.548-.223.671l-5.724 2.862v2.882l5.276-2.638c.247-.123.547-.024.671.223s.024.548-.223.671l-5.724 2.862v9.69099996c0 1.402-1.538 2.5-3.5 2.5" fill="rgb(0,0,0)"/></g></svg>