<svg id="Capa_1" enable-background="new 0 0 512 512" height="512" viewBox="0 0 512 512" width="512" xmlns="http://www.w3.org/2000/svg"><g id="entertainment_x2F_multimedia_x2F_music-note-alt"><g id="XMLID_1_"><path d="m374.4 225c2.4 28.7-15.8 52.7-36.2 70.6-4.2 4.2-10.9 4.2-15.1 0s-4.2-11 0-15.1c15.5-14.1 32.3-31.8 30-54.5 0-21.4-15.7-37.3-31.9-49.2-18.2-15.2-33.1-33.5-44-53.9v271.8c0 29.9-32.8 53.3-74.7 53.3s-74.7-23.4-74.7-53.3 32.8-53.3 74.7-53.3c21.1 0 39.9 5.9 53.3 15.7v-325.1c0-5.9 4.8-10.7 10.7-10.7s10.7 4.8 10.7 10.7c-1.4 49.4 19.5 96.7 57.6 128.3 21.4 15.3 39.2 37.4 39.6 64.7zm-118.4 169.7c0-17.3-24.4-32-53.3-32s-53.3 14.7-53.3 32c0 17.4 24.4 32 53.3 32s53.3-14.7 53.3-32z"/></g></g></svg>