<svg height="512" viewBox="0 0 24 24" width="512" xmlns="http://www.w3.org/2000/svg"><g id="entertainment/audio-video/phone" fill="none" fill-rule="evenodd"><path id="Fill-8" d="m6.7852 2.14338884-2.766 1.23c-.633.281-.989.954-.867 1.636.5 2.78 2.25 5.68699996 5.201 8.63799996 2.952 2.952 5.858 4.701 8.639 5.201.686.129 1.355-.232 1.636-.866l1.229-2.767-3.817-2.12-1.74 1.305c-.141.106-.327.13-.49.063-1.189-.489-2.421-1.367-3.664-2.609-1.241-1.241-2.118-2.47399996-2.609-3.66299996-.066-.163-.043-.35.063-.49l1.305-1.741zm10.478 17.72899996c-.148 0-.298-.012-.449-.04-2.984-.536-6.069-2.379-9.168-5.478-3.098-3.098-4.941-6.18299996-5.478-9.16799996-.205-1.137.39-2.258 1.445-2.727l3.184-1.416c.238-.105.515-.011.64.215l2.5 4.5c.096.172.081.385-.037.542l-1.325 1.767c.458.99 1.223 2.02499996 2.278 3.07999996 1.057 1.056 2.091 1.822 3.08 2.279l1.767-1.325c.158-.119.37-.133.543-.038l4.5 2.5c.226.126.319.404.214.641l-1.415 3.184c-.407.916-1.306 1.484-2.279 1.484z" fill="rgb(0,0,0)"/></g></svg>