<svg height="512" viewBox="0 0 24 24" width="512" xmlns="http://www.w3.org/2000/svg"><g id="entertainment/audio-video/play-pause" fill="none" fill-rule="evenodd"><path id="Fill-31" d="m3 7.40308884v8.19499996l6.557-4.097zm-.5 9.59799996c-.083 0-.167-.021-.242-.063-.159-.088-.258-.256-.258-.437v-9.99999996c0-.182.099-.35.258-.438.158-.089.352-.084.507.014l8 4.99999996c.146.091.235.251.235.424s-.089.333-.235.423l-8 5c-.081.051-.173.077-.265.077zm13 0c-.276 0-.5-.224-.5-.5v-9.99999996c0-.277.224-.5.5-.5s.5.223.5.5v9.99999996c0 .276-.224.5-.5.5zm5 0c-.276 0-.5-.224-.5-.5v-9.99999996c0-.277.224-.5.5-.5s.5.223.5.5v9.99999996c0 .276-.224.5-.5.5z" fill="rgb(0,0,0)"/></g></svg>