<svg height="512" viewBox="0 0 24 24" width="512" xmlns="http://www.w3.org/2000/svg"><g id="entertainment/multimedia/podcast" fill="none" fill-rule="evenodd"><path id="Fill-44" d="m16.2012 15.6814888c-.404.012-.654-.496-.394-.809 1.71-2.179 1.54-5.30099996-.418-7.25999996-1.029-1.041-2.457-1.62-3.923-1.602-1.443.001-2.843.577-3.854 1.602-1.959 1.959-2.129 5.08099996-.419 7.25999996.26.313.01.821-.394.809-.152 0-.298-.069-.394-.191-2.021-2.578-1.817-6.26899996.499-8.58499996 1.226-1.226 2.86-1.905 4.596-1.905 1.737 0 3.37.678 4.596 1.905 2.316 2.316 2.52 6.00699996.499 8.58499996-.096.122-.242.191-.394.191zm-11.815 1.818c-.15 0-.298-.066-.396-.193-2.919-3.769-2.578-9.15199996.793-12.52199996 1.794-1.795 4.18-2.784 6.717-2.784 2.538 0 4.924.989 6.718 2.784 3.371 3.37 3.712 8.75299996.793 12.52199996-.169.218-.484.259-.702.088-.218-.169-.258-.483-.089-.701 2.611-3.371 2.306-8.18699996-.709-11.20199996-1.606-1.606-3.74-2.491-6.011-2.491-2.27 0-4.405.885-6.01 2.491-3.016 3.015-3.321 7.83099996-.709 11.20199996.258.313.004.819-.395.806zm7.114-8.49799996c-1.378 0-2.5 1.12099996-2.5 2.49999996-.091 1.609.595 3.207 1.9 4.175.353.264.847.264 1.2 0 1.305-.968 1.991-2.566 1.9-4.175 0-1.379-1.121-2.49999996-2.5-2.49999996zm-5.306 10.99999996h10.612c-.203-.78-.64-1.506-1.391-1.859l-1.271-.636c-.539-.269-.925-.764-1.057-1.348-.124.111-.253.217-.386.317-.707.53-1.694.531-2.401 0-.134-.1-.263-.206-.387-.317-.133.584-.519 1.079-1.056 1.348l-1.272.636c-.751.353-1.188 1.08-1.391 1.859zm11.306 1h-12c-.16 0-.311-.077-.405-.208-.094-.13-.12-.298-.069-.45.338-1.223.873-2.548 2.112-3.096l1.271-.635c.503-.203.579-.896.698-1.349-.792-1.073-1.165-2.418-1.107-3.762 0-1.92999996 1.571-3.49999996 3.5-3.49999996 1.93 0 3.5 1.57 3.5 3.49999996.059 1.344-.315 2.69-1.107 3.762.12.455.194 1.145.698 1.349l1.271.635c1.238.548 1.774 1.874 2.112 3.096.052.152.026.319-.068.45s-.245.208-.406.208z" fill="rgb(0,0,0)"/></g></svg>