<svg height="512" viewBox="0 0 24 24" width="512" xmlns="http://www.w3.org/2000/svg"><g id="entertainment/multimedia/radio" fill="none" fill-rule="evenodd"><path id="Fill-48" d="m17.5005 12.0007888h-6c-.276 0-.5-.224-.5-.5s.224-.5.5-.5h6c.276 0 .5.224.5.5s-.224.5-.5.5zm0 2h-6c-.276 0-.5-.224-.5-.5s.224-.5.5-.5h6c.276 0 .5.224.5.5s-.224.5-.5.5zm-10.5-3c-1.103 0-2 .897-2 2s.897 2 2 2 2-.897 2-2-.897-2-2-2zm0 5c-1.654 0-3-1.346-3-3s1.346-3 3-3 3 1.346 3 3-1.346 3-3 3zm3-8.99999996h6v-1.5c0-.276-.225-.5-.5-.5h-5c-.275 0-.5.224-.5.5zm-6.5 1c-.275 0-.5.224-.5.5v8.99999996c0 .276.225.5.5.5h16c.275 0 .5-.224.5-.5v-8.99999996c0-.276-.225-.5-.5-.5zm16 10.99999996h-16c-.827 0-1.5-.673-1.5-1.5v-8.99999996c0-.827.673-1.5 1.5-1.5h1.5v-4.5c0-.276.224-.5.5-.5s.5.224.5.5v4.5h3v-1.5c0-.827.673-1.5 1.5-1.5h5c.827 0 1.5.673 1.5 1.5v1.5h2.5c.827 0 1.5.673 1.5 1.5v8.99999996c0 .827-.673 1.5-1.5 1.5z" fill="rgb(0,0,0)"/></g></svg>