<svg height="512" viewBox="0 0 24 24" width="512" xmlns="http://www.w3.org/2000/svg"><g id="entertainment/audio-video/rewind" fill="none" fill-rule="evenodd"><path id="Fill-38" d="m2.207 11.4763888 7.793 7.793v-15.58599996zm9 0 7.793 7.793v-15.58599996zm8.293 9.5c-.13 0-.258-.051-.354-.146l-8.146-8.147v7.793c0 .202-.122.385-.309.462-.187.076-.401.035-.545-.108l-9-9c-.195-.196-.195-.512 0-.708l9-8.99999996c.144-.143.358-.184.545-.108.187.077.309.26.309.462v7.79299996l8.146-8.14699996c.143-.143.359-.184.545-.108.187.077.309.26.309.462v17.99999996c0 .202-.122.385-.309.462-.062.025-.127.038-.191.038z" fill="rgb(0,0,0)"/></g></svg>