<svg height="512" viewBox="0 0 24 24" width="512" xmlns="http://www.w3.org/2000/svg"><g id="entertainment/audio-video/subscribe-box" fill="none" fill-rule="evenodd"><path id="Fill-47" d="m10.5005 16.0007888c-.276 0-.5-.224-.5-.5 0-1.379-1.122-2.5-2.5-2.5-.277 0-.5-.224-.5-.5s.223-.5.5-.5c1.93 0 3.5 1.57 3.5 3.5 0 .276-.224.5-.5.5zm3 0c-.276 0-.5-.224-.5-.5 0-3.032-2.468-5.5-5.5-5.5-.277 0-.5-.22399996-.5-.49999996s.223-.5.5-.5c3.584 0 6.5 2.91599996 6.5 6.49999996 0 .276-.224.5-.5.5zm3 0c-.276 0-.5-.224-.5-.5 0-4.687-3.813-8.49999996-8.5-8.49999996-.277 0-.5-.224-.5-.5s.223-.5.5-.5c5.238 0 9.5 4.26199996 9.5 9.49999996 0 .276-.224.5-.5.5zm-9 .5c-.552 0-1-.448-1-1s.448-1 1-1c.551 0 1 .448 1 1s-.449 1-1 1zm-1-12.49999996c-1.379 0-2.5 1.121-2.5 2.5v9.99999996c0 1.379 1.121 2.5 2.5 2.5h10c1.379 0 2.5-1.121 2.5-2.5v-9.99999996c0-1.379-1.121-2.5-2.5-2.5zm10 15.99999996h-10c-1.93 0-3.5-1.57-3.5-3.5v-9.99999996c0-1.93 1.57-3.5 3.5-3.5h10c1.93 0 3.5 1.57 3.5 3.5v9.99999996c0 1.93-1.57 3.5-3.5 3.5z" fill="rgb(0,0,0)"/></g></svg>