<svg height="512" viewBox="0 0 24 24" width="512" xmlns="http://www.w3.org/2000/svg"><g id="entertainment/audio-video/shuffle-alt" fill="none" fill-rule="evenodd"><path id="Fill-39" d="m18.5 9.00078884c-.128 0-.256-.049-.354-.146-.195-.196-.195-.512 0-.708l2.147-2.146h-3.117c-1.507 0-2.907.749-3.744 2.004-.155.229-.466.291-.694.139-.23-.154-.292-.464-.138-.694 1.024-1.534 2.734-2.449 4.576-2.449h3.117l-2.147-2.146c-.195-.196-.195-.512 0-.708.196-.195.512-.195.708 0l2.999 3c.194.186.195.523-.001.708l-2.998 3c-.098.097-.226.146-.354.146m-14.676 8.99999996h-1.324c-.276 0-.5-.224-.5-.5s.224-.5.5-.5h1.324c1.508 0 2.908-.749 3.744-2.004.153-.23.463-.292.694-.139.23.154.292.464.138.694-1.022 1.533-2.733 2.449-4.576 2.449m14.676 3c-.128 0-.256-.049-.354-.146-.195-.196-.195-.512 0-.708l2.147-2.146h-3.117c-1.843 0-3.553-.916-4.576-2.449l-5.032-7.54599996c-.836-1.256-2.236-2.005-3.744-2.005h-1.324c-.276 0-.5-.224-.5-.5s.224-.5.5-.5h1.324c1.843 0 3.554.916 4.576 2.45l5.032 7.54599996c.837 1.255 2.236 2.004 3.744 2.004h3.117l-2.147-2.146c-.195-.196-.195-.512 0-.708.196-.195.512-.195.708 0l2.998 3c.196.185.195.522.001.708l-2.999 3c-.098.097-.226.146-.354.146" fill="rgb(0,0,0)"/></g></svg>