<svg height="512" viewBox="0 0 24 24" width="512" xmlns="http://www.w3.org/2000/svg"><g id="entertainment/audio-video/skip-forward" fill="none" fill-rule="evenodd"><path id="Fill-36" d="m17.5 20.9763888c-.276 0-.5-.224-.5-.5v-17.99999996c0-.276.224-.5.5-.5s.5.224.5.5v17.99999996c0 .276-.224.5-.5.5zm-11.5-17.29299996v15.58599996l7.793-7.793zm-.5 17.29299996c-.064 0-.129-.013-.191-.038-.187-.077-.309-.26-.309-.462v-17.99999996c0-.202.122-.385.309-.462.187-.076.402-.035.545.108l9 8.99999996c.195.196.195.512 0 .708l-9 9c-.096.095-.224.146-.354.146z" fill="rgb(0,0,0)"/></g></svg>