<svg height="512" viewBox="0 0 24 24" width="512" xmlns="http://www.w3.org/2000/svg"><g id="entertainment/audio-video/skip-back" fill="none" fill-rule="evenodd"><path id="Fill-41" d="m5.5 20.9763888c-.276 0-.5-.224-.5-.5v-17.99999996c0-.276.224-.5.5-.5s.5.224.5.5v17.99999996c0 .276-.224.5-.5.5zm3.707-9.5 7.793 7.793v-15.58599996zm8.293 9.5c-.13 0-.258-.051-.354-.146l-9-9c-.195-.196-.195-.512 0-.708l9-8.99999996c.144-.143.358-.184.545-.108.187.077.309.26.309.462v17.99999996c0 .202-.122.385-.309.462-.062.025-.127.038-.191.038z" fill="rgb(0,0,0)"/></g></svg>