<svg height="512" viewBox="0 0 24 24" width="512" xmlns="http://www.w3.org/2000/svg"><g id="entertainment/audio-video/broadcast" fill="none" fill-rule="evenodd"><path id="Fill-42" d="m13.6216 14.1218888c-.128 0-.256-.049-.354-.146-.195-.196-.195-.512 0-.708.473-.471.733-1.099.733-1.767 0-.667-.26-1.295-.733-1.76799996-.945-.945-2.591-.944-3.535 0-.472.47299996-.732 1.10099996-.732 1.76799996 0 .668.26 1.296.732 1.767.196.196.196.512 0 .708-.195.195-.511.195-.707 0-.661-.661-1.025-1.54-1.025-2.475s.364-1.81399996 1.025-2.47499996c1.321-1.321 3.627-1.323 4.95 0 .661.661 1.025 1.53999996 1.025 2.47499996s-.364 1.814-1.025 2.475c-.098.097-.226.146-.354.146zm2.12 2.122c-.128 0-.256-.049-.353-.146-.196-.196-.196-.512 0-.707 1.04-1.04 1.612-2.421 1.612-3.89s-.572-2.84999996-1.612-3.88899996c-1.038-1.039-2.419-1.611-3.888-1.611s-2.85.572-3.889 1.611-1.611 2.41999996-1.611 3.88899996.572 2.85 1.611 3.89c.196.195.196.511 0 .707-.195.195-.511.195-.707 0-1.227-1.228-1.904-2.861-1.904-4.597 0-1.73599996.677-3.36799996 1.904-4.59599996 1.228-1.227 2.86-1.904 4.596-1.904s3.368.677 4.595 1.904c1.228 1.228 1.905 2.86 1.905 4.59599996 0 1.736-.677 3.369-1.905 4.597-.098.097-.226.146-.354.146zm-10.605 2.121c-.128 0-.256-.049-.354-.146-3.704-3.704-3.704-9.73199996 0-13.43599996 3.705-3.705 9.731-3.705 13.436 0 3.703 3.704 3.703 9.73199996 0 13.43599996-.196.195-.512.195-.707 0-.196-.196-.196-.512 0-.707 3.313-3.315 3.313-8.70699996 0-12.02199996-3.315-3.314-8.707-3.314-12.022 0-3.314 3.315-3.314 8.70699996 0 12.02199996.195.195.195.511 0 .707-.097.097-.225.146-.353.146zm1.506 1.636h9.716l-4.858-5.263zm10.858 1h-12c-.198 0-.378-.117-.458-.3-.08-.182-.044-.393.091-.539l6-6.5c.189-.205.545-.205.734 0l6 6.5c.135.146.171.357.091.539-.08.183-.26.3-.458.3z" fill="rgb(0,0,0)"/></g></svg>