<svg height="512" viewBox="0 0 24 24" width="512" xmlns="http://www.w3.org/2000/svg"><g id="entertainment/audio-video/subscribe" fill="none" fill-rule="evenodd"><path id="Fill-46" d="m9.5 20.0007888c-.276 0-.5-.224-.5-.5 0-3.032-2.467-5.5-5.5-5.5-.276 0-.5-.224-.5-.5s.224-.5.5-.5c3.584 0 6.5 2.916 6.5 6.5 0 .276-.224.5-.5.5m5 0c-.276 0-.5-.224-.5-.5 0-5.79-4.71-10.49999996-10.5-10.49999996-.276 0-.5-.224-.5-.5s.224-.5.5-.5c6.341 0 11.5 5.15899996 11.5 11.49999996 0 .276-.224.5-.5.5m5 0c-.276 0-.5-.224-.5-.5 0-8.547-6.953-15.49999996-15.5-15.49999996-.276 0-.5-.224-.5-.5s.224-.5.5-.5c9.098 0 16.5 7.40199996 16.5 16.49999996 0 .276-.224.5-.5.5m-16 .5c-.551 0-1-.448-1-1s.449-1 1-1 1 .448 1 1-.449 1-1 1" fill="rgb(0,0,0)"/></g></svg>