<svg id="Capa_1" enable-background="new 0 0 512 512" height="512" viewBox="0 0 512 512" width="512" xmlns="http://www.w3.org/2000/svg"><g id="entertainment_x2F_audio-video_x2F_video"><g id="XMLID_1_"><path d="m469.4 394.7c.1 5.8-5 10.8-10.7 10.7-2.4 0-4.7-.8-6.6-2.3l-132.1-103.8v74.1c0 5.9-4.8 10.7-10.7 10.7h-256c-5.9 0-10.7-4.8-10.7-10.7v-256c0-5.9 4.8-10.7 10.7-10.7h256c5.9 0 10.7 4.8 10.7 10.7v74l132.1-103.8c3.2-2.5 7.6-3 11.3-1.2s6 5.5 6 9.6zm-21.4-21.9v-254.8l-132.1 103.7c-3.2 2.5-7.6 3-11.3 1.2s-6-5.5-6-9.6v-85.3h-234.6v234.7h234.7v-85.3c0-4.1 2.3-7.8 6-9.6 1.5-.7 3.1-1.1 4.7-1.1 2.4 0 4.7.8 6.6 2.3z"/></g></g></svg>