<svg height="512" viewBox="0 0 24 24" width="512" xmlns="http://www.w3.org/2000/svg"><g id="entertainment/multimedia/film-alt" fill="none" fill-rule="evenodd"><path id="Fill-3" d="m10.0005 9.43488884v4.13199996l3.099-2.066zm-.5 5.56599996c-.081 0-.162-.02-.236-.059-.162-.087-.264-.257-.264-.441v-5.99999996c0-.185.102-.354.264-.441.163-.086.359-.078.513.025l4.5 2.99999996c.139.093.223.249.223.416s-.084.323-.223.416l-4.5 3c-.084.056-.18.084-.277.084zm-5.5-7.99999996h2v-3h-2zm13 0h2v-3h-2zm-13 3.99999996h2v-2.99999996h-2zm13 0h2v-2.99999996h-2zm-13 4h2v-3h-2zm13 0h2v-3h-2zm-13 4h2v-3h-2zm3 0h9v-14.99999996h-9zm10 0h2v-3h-2zm2.5 1h-16c-.277 0-.5-.224-.5-.5v-15.99999996c0-.276.223-.5.5-.5h16c.276 0 .5.224.5.5v15.99999996c0 .276-.224.5-.5.5z" fill="rgb(0,0,0)"/></g></svg>