<svg height="512" viewBox="0 0 24 24" width="512" xmlns="http://www.w3.org/2000/svg"><g id="entertainment/multimedia/clapperboard-alt" fill="none" fill-rule="evenodd"><path id="Fill-4" d="m4.0005 5.00078884v2.293l2.293-2.293zm.707 3h2.586l3-3h-2.586zm4 0h2.586l3-3h-2.586zm4 0h2.586l3-3h-2.586zm4 0h2.293v-2.293zm-12.707 9.99999996h15v-8.99999996h-15zm15.5 1h-16c-.276 0-.5-.224-.5-.5v-9.99899996-.002-3.999c0-.276.224-.5.5-.5h15.998.015.001.001c.264.003.49.237.4850814.501v13.99899996c0 .276-.2240814.5-.5000814.5z" fill="rgb(0,0,0)"/></g></svg>