<svg height="512" viewBox="0 0 24 24" width="512" xmlns="http://www.w3.org/2000/svg"><g id="entertainment/audio-video/video-off" fill="none" fill-rule="evenodd"><path id="Fill-17" d="m3.0005 17.0007888h.589l8.556-10.99999996h-9.145zm11.5-4.5c.11 0 .219.036.309.107l6.191 4.865v-11.94299996l-6.191 4.86399996c-.15.118-.356.14-.528.057-.172-.084-.281-.259-.281-.45v-3.99999996h-.589l-8.556 10.99999996h9.145v-4c0-.191.109-.366.281-.45.07-.033.145-.05.219-.05zm-13 8.5c-.107 0-.216-.034-.307-.105-.218-.169-.257-.484-.088-.702l1.706-2.193h-.311c-.276 0-.5-.224-.5-.5v-11.99999996c0-.276.224-.5.5-.5h10.422l2.183-2.807c.169-.219.485-.258.702-.088.218.17.257.484.088.702l-1.706 2.193h.311c.276 0 .5.224.5.5v3.471l6.191-4.864c.151-.119.355-.141.528-.057.172.084.281.259.281.45v13.99999996c0 .191-.109.366-.281.449-.172.086-.376.063-.528-.055l-6.191-4.865v3.471c0 .276-.224.5-.5.5h-10.422l-2.183 2.807c-.099.127-.247.193-.395.193z" fill="rgb(0,0,0)"/></g></svg>