<svg id="Capa_1" enable-background="new 0 0 512 512" height="512" viewBox="0 0 512 512" width="512" xmlns="http://www.w3.org/2000/svg"><g id="entertainment_x2F_multimedia_x2F_voicemail"><g id="XMLID_1_"><path d="m373.3 149.4c52.9 0 96 43.1 96 96s-43.1 96-96 96h-256c-52.9 0-96-43.1-96-96s43.1-96 96-96 96 43.1 96 96c0 30.1-13.9 57-35.7 74.7h135.5c-21.8-17.6-35.7-44.5-35.7-74.7-.1-53 43-96 95.9-96zm74.7 96c0-41.2-33.5-74.7-74.7-74.7s-74.7 33.5-74.7 74.7 33.5 74.7 74.7 74.7c41.2-.1 74.7-33.6 74.7-74.7zm-256 0c0-41.2-33.5-74.7-74.7-74.7s-74.7 33.5-74.7 74.7 33.6 74.6 74.7 74.6c41.2 0 74.7-33.5 74.7-74.6z"/></g></g></svg>