<svg height="512" viewBox="0 0 24 24" width="512" xmlns="http://www.w3.org/2000/svg"><g id="entertainment/audio-video/volume-medium" fill="none" fill-rule="evenodd"><path id="Fill-21" d="m16.0356 15.5368888c-.128 0-.256-.049-.354-.146-.195-.196-.195-.512 0-.708.851-.85 1.319-1.98 1.319-3.182s-.468-2.33199996-1.319-3.18199996c-.195-.195-.195-.511 0-.707.196-.195.512-.195.708 0 1.039 1.038 1.611 2.41999996 1.611 3.88899996 0 1.47-.572 2.85-1.611 3.89-.098.097-.226.146-.354.146zm2.121 2.121c-.128 0-.256-.049-.353-.146-.196-.196-.196-.512 0-.707 1.417-1.417 2.197-3.3 2.197-5.303 0-2.00399996-.78-3.88699996-2.197-5.30399996-.196-.195-.196-.512 0-.707.195-.195.511-.195.707 0 1.606 1.606 2.49 3.74 2.49 6.01099996 0 2.269-.884 4.404-2.49 6.01-.098.097-.226.146-.354.146zm-14.157-3.657h2v-4.99999996h-2zm3 .293 6 6v-17.58599996l-6 6zm6.5 7.7069993c-.13 0-.257-.0509993-.353-.1469993l-6.854-6.8530007h-2.793c-.276 0-.5-.2239993-.5-.5v-6c0-.27599926.224-.5.5-.5h2.793l6.854-6.85399926c.143-.143.358-.185.545-.108s.308.26.308.46199926v20c0 .2020007-.121.3850007-.308.4620007-.062.025-.127.0379993-.192.0379993z" fill="rgb(0,0,0)"/></g></svg>