<svg height="512" viewBox="0 0 24 24" width="512" xmlns="http://www.w3.org/2000/svg"><g id="entertainment/audio-video/volume-minimum" fill="none" fill-rule="evenodd"><path id="Fill-22" d="m17.3281 14.8288888c-.128 0-.256-.049-.354-.146-.195-.196-.195-.512 0-.708.662-.661 1.025-1.54 1.025-2.474 0-.935-.363-1.81399996-1.025-2.47499996-.195-.195-.195-.511 0-.707.196-.195.512-.195.708 0 .85.85 1.317 1.97999996 1.317 3.18199996s-.467 2.332-1.317 3.182c-.098.097-.226.146-.354.146zm-12.328-.828h2v-4.99999996h-2zm3 .293 6 6v-17.58599996l-6 6zm6.5 7.7069993c-.13 0-.258-.0509993-.354-.1469993l-6.853-6.8530007h-2.793c-.276 0-.5-.2239993-.5-.5v-6c0-.27599926.224-.5.5-.5h2.793l6.853-6.85399926c.144-.143.359-.185.545-.108.187.077.309.26.309.46199926v20c0 .2020007-.122.3850007-.309.4620007-.062.025-.127.0379993-.191.0379993z" fill="rgb(0,0,0)"/></g></svg>