<svg height="512" viewBox="0 0 24 24" width="512" xmlns="http://www.w3.org/2000/svg"><g id="entertainment/audio-video/mute" fill="none" fill-rule="evenodd"><path id="Fill-27" d="m5 14.0007888h2v-4.99999996h-2zm3 .293.391.391 5.609-7.21199996v-4.765l-6 6zm1.104 1.103 4.896 4.897v-11.19199996zm5.396 6.6039993c-.129 0-.257-.0509993-.353-.1459993l-5.662-5.663-3.59 4.616c-.171.218-.485.256-.701.088-.219-.169-.258-.484-.088-.702l3.666-4.714-.479-.4790007h-2.793c-.276 0-.5-.2239993-.5-.5v-6c0-.27599926.224-.5.5-.5h2.793l6.854-6.85399926c.143-.143.36-.185.545-.108.186.077.308.26.308.46199926v4.68600074l3.106-3.993c.17-.218.483-.258.701-.088.219.169.258.484.088.702l-3.895 5.007v13.68599926c0 .2020007-.122.3850007-.308.4620007-.062.025-.127.0379993-.192.0379993z" fill="rgb(0,0,0)"/></g></svg>