<svg height="512" viewBox="0 0 24 24" width="512" xmlns="http://www.w3.org/2000/svg"><g id="entertainment/audio-video/volume-down" fill="none" fill-rule="evenodd"><path id="Fill-25" d="m20.5005 12.0007888h-4c-.276 0-.5-.224-.5-.5s.224-.5.5-.5h4c.276 0 .5.224.5.5s-.224.5-.5.5zm-16.5 2h2v-4.99999996h-2zm3 .293 6 6v-17.58599996l-6 6zm6.5 7.7069993c-.13 0-.258-.0509993-.354-.1459993l-6.853-6.8540007h-2.793c-.276 0-.5-.2239993-.5-.5v-6c0-.27599926.224-.5.5-.5h2.793l6.853-6.85399926c.143-.143.36-.185.545-.108.187.077.309.26.309.46199926v20c0 .2020007-.122.3850007-.309.4620007-.061.025-.127.0379993-.191.0379993z" fill="rgb(0,0,0)"/></g></svg>