<svg height="512" viewBox="0 0 24 24" width="512" xmlns="http://www.w3.org/2000/svg"><g id="entertainment/audio-video/volume-max" fill="none" fill-rule="evenodd"><path id="Fill-20" d="m14.6216 14.1218888c-.128 0-.256-.049-.354-.146-.195-.196-.195-.512 0-.708.473-.471.733-1.099.733-1.767 0-.667-.26-1.295-.733-1.76799996-.195-.195-.195-.511 0-.707.196-.195.512-.195.708 0 .661.661 1.025 1.53999996 1.025 2.47499996s-.364 1.814-1.025 2.475c-.098.097-.226.146-.354.146zm2.121 2.122c-.128 0-.256-.049-.353-.146-.196-.196-.196-.512 0-.707 2.143-2.145 2.143-5.63399996 0-7.77899996-.196-.195-.196-.511 0-.707.195-.195.511-.195.707 0 2.534 2.534 2.534 6.65699996 0 9.19299996-.098.097-.226.146-.354.146zm2.121 2.121c-.128 0-.256-.049-.353-.146-.196-.196-.196-.512 0-.707 3.314-3.315 3.314-8.70699996 0-12.02199996-.196-.195-.196-.512 0-.707.195-.195.511-.195.707 0 3.704 3.704 3.704 9.73199996 0 13.43599996-.098.097-.226.146-.354.146zm-15.863-4.364h2v-4.99999996h-2zm3 .293 6 6v-17.58599996l-6 6zm6.5 7.707c-.13 0-.258-.051-.354-.147l-6.853-6.853h-2.793c-.276 0-.5-.224-.5-.5v-5.99999996c0-.276.224-.5.5-.5h2.793l6.853-6.854c.144-.142.36-.184.545-.108.187.077.309.26.309.462v19.99999996c0 .202-.122.385-.309.462-.061.025-.127.038-.191.038z" fill="rgb(0,0,0)"/></g></svg>