<svg height="512" viewBox="0 0 24 24" width="512" xmlns="http://www.w3.org/2000/svg"><g id="entertainment/audio-video/volume-off" fill="none" fill-rule="evenodd"><path id="Fill-26" d="m20.5005 14.0007888c-.128 0-.256-.049-.354-.146l-1.646-1.647-1.646 1.647c-.196.195-.512.195-.708 0-.195-.196-.195-.512 0-.708l1.647-1.646-1.647-1.64599996c-.195-.196-.195-.512 0-.708.196-.195.512-.195.708 0l1.646 1.64699996 1.646-1.64699996c.196-.195.512-.195.708 0 .195.196.195.512 0 .708l-1.647 1.64599996 1.647 1.646c.195.196.195.512 0 .708-.098.097-.226.146-.354.146zm-16.5 0h2v-4.99999996h-2zm3 .293 6 6v-17.58599996l-6 6zm6.5 7.7069993c-.13 0-.258-.0509993-.354-.1459993l-6.853-6.8540007h-2.793c-.276 0-.5-.2239993-.5-.5v-6c0-.27599926.224-.5.5-.5h2.793l6.853-6.85399926c.143-.143.361-.185.545-.108.187.077.309.26.309.46199926v20c0 .2020007-.122.3850007-.309.4620007-.061.025-.127.0379993-.191.0379993z" fill="rgb(0,0,0)"/></g></svg>