<svg height="512" viewBox="0 0 24 24" width="512" xmlns="http://www.w3.org/2000/svg"><g id="entertainment/audio-video/volume-up" fill="none" fill-rule="evenodd"><path id="Fill-24" d="m18.5005 14.0007888c-.276 0-.5-.224-.5-.5v-1.5h-1.5c-.276 0-.5-.224-.5-.5s.224-.5.5-.5h1.5v-1.49999996c0-.276.224-.5.5-.5s.5.224.5.5v1.49999996h1.5c.276 0 .5.224.5.5s-.224.5-.5.5h-1.5v1.5c0 .276-.224.5-.5.5zm-14.5 0h2v-4.99999996h-2zm3 .293 6 6v-17.58599996l-6 6zm6.5 7.7069993c-.13 0-.258-.0509993-.354-.1459993l-6.854-6.8540007h-2.792c-.277 0-.5-.2239993-.5-.5v-6c0-.27599926.223-.5.5-.5h2.792l6.854-6.85399926c.144-.143.36-.185.545-.108.187.077.309.26.309.46199926v20c0 .2020007-.122.3850007-.309.4620007-.061.025-.127.0379993-.191.0379993z" fill="rgb(0,0,0)"/></g></svg>