<svg height="512" viewBox="0 0 24 24" width="512" xmlns="http://www.w3.org/2000/svg"><g id="entertainment/multimedia/play-pause-squircle" fill="none" fill-rule="evenodd"><path id="Fill-43" d="m10.0005 9.34308884v4.31499996l3.956-2.157zm-.5 5.65799996c-.088 0-.177-.024-.255-.07-.152-.09-.245-.254-.245-.43v-5.99999996c0-.177.093-.34.245-.43.151-.089.341-.093.494-.009l5.5 2.99999996c.161.087.261.256.261.439s-.1.351-.261.439l-5.5 3c-.074.04-.157.061-.239.061zm2-10.99999996c-6.729 0-7.5.771-7.5 7.49999996 0 6.729.771 7.5 7.5 7.5s7.5-.771 7.5-7.5c0-6.72899996-.771-7.49999996-7.5-7.49999996zm0 15.99999996c-7.309 0-8.5-1.192-8.5-8.5 0-7.30899996 1.191-8.49999996 8.5-8.49999996s8.5 1.191 8.5 8.49999996c0 7.308-1.191 8.5-8.5 8.5z" fill="rgb(0,0,0)"/></g></svg>